ModelForces
version=1
nRows=4
nColumns=202
inDegrees=no

This file contains the forces exerted on a model during a simulation.

A force is a generalized force, meaning that it can be either a force (N) or a torque (Nm).

Units are S.I. units (second, meters, Newtons, ...)
Angles are in degrees.

endheader
time	glut_med1_r	glut_med2_r	glut_med3_r	glut_min1_r	glut_min2_r	glut_min3_r	semimem_r	semiten_r	bifemlh_r	bifemsh_r	sar_r	add_long_r	add_brev_r	add_mag1_r	add_mag2_r	add_mag3_r	tfl_r	pect_r	grac_r	glut_max1_r	glut_max2_r	glut_max3_r	iliacus_r	psoas_r	quad_fem_r	gem_r	peri_r	rect_fem_r	vas_med_r	vas_int_r	vas_lat_r	med_gas_r	lat_gas_r	soleus_r	tib_post_r	flex_dig_r	flex_hal_r	tib_ant_r	per_brev_r	per_long_r	per_tert_r	ext_dig_r	ext_hal_r	glut_med1_l	glut_med2_l	glut_med3_l	glut_min1_l	glut_min2_l	glut_min3_l	semimem_l	semiten_l	bifemlh_l	bifemsh_l	sar_l	add_long_l	add_brev_l	add_mag1_l	add_mag2_l	add_mag3_l	tfl_l	pect_l	grac_l	glut_max1_l	glut_max2_l	glut_max3_l	iliacus_l	psoas_l	quad_fem_l	gem_l	peri_l	rect_fem_l	vas_med_l	vas_int_l	vas_lat_l	med_gas_l	lat_gas_l	soleus_l	tib_post_l	flex_dig_l	flex_hal_l	tib_ant_l	per_brev_l	per_long_l	per_tert_l	ext_dig_l	ext_hal_l	ercspn_r	ercspn_l	intobl_r	intobl_l	extobl_r	extobl_l	femur_lat_meniscii_l.femur_lat_l.force.X	femur_lat_meniscii_l.femur_lat_l.force.Y	femur_lat_meniscii_l.femur_lat_l.force.Z	femur_lat_meniscii_l.femur_lat_l.torque.X	femur_lat_meniscii_l.femur_lat_l.torque.Y	femur_lat_meniscii_l.femur_lat_l.torque.Z	femur_lat_meniscii_l.meniscus_lat_l.force.X	femur_lat_meniscii_l.meniscus_lat_l.force.Y	femur_lat_meniscii_l.meniscus_lat_l.force.Z	femur_lat_meniscii_l.meniscus_lat_l.torque.X	femur_lat_meniscii_l.meniscus_lat_l.torque.Y	femur_lat_meniscii_l.meniscus_lat_l.torque.Z	femur_med_meniscii_l.femur_med_l.force.X	femur_med_meniscii_l.femur_med_l.force.Y	femur_med_meniscii_l.femur_med_l.force.Z	femur_med_meniscii_l.femur_med_l.torque.X	femur_med_meniscii_l.femur_med_l.torque.Y	femur_med_meniscii_l.femur_med_l.torque.Z	femur_med_meniscii_l.meniscus_med_l.force.X	femur_med_meniscii_l.meniscus_med_l.force.Y	femur_med_meniscii_l.meniscus_med_l.force.Z	femur_med_meniscii_l.meniscus_med_l.torque.X	femur_med_meniscii_l.meniscus_med_l.torque.Y	femur_med_meniscii_l.meniscus_med_l.torque.Z	femur_lat_meniscii_r.femur_lat_r.force.X	femur_lat_meniscii_r.femur_lat_r.force.Y	femur_lat_meniscii_r.femur_lat_r.force.Z	femur_lat_meniscii_r.femur_lat_r.torque.X	femur_lat_meniscii_r.femur_lat_r.torque.Y	femur_lat_meniscii_r.femur_lat_r.torque.Z	femur_lat_meniscii_r.meniscus_lat_r.force.X	femur_lat_meniscii_r.meniscus_lat_r.force.Y	femur_lat_meniscii_r.meniscus_lat_r.force.Z	femur_lat_meniscii_r.meniscus_lat_r.torque.X	femur_lat_meniscii_r.meniscus_lat_r.torque.Y	femur_lat_meniscii_r.meniscus_lat_r.torque.Z	femur_med_meniscii_r.femur_med_r.force.X	femur_med_meniscii_r.femur_med_r.force.Y	femur_med_meniscii_r.femur_med_r.force.Z	femur_med_meniscii_r.femur_med_r.torque.X	femur_med_meniscii_r.femur_med_r.torque.Y	femur_med_meniscii_r.femur_med_r.torque.Z	femur_med_meniscii_r.meniscus_med_r.force.X	femur_med_meniscii_r.meniscus_med_r.force.Y	femur_med_meniscii_r.meniscus_med_r.force.Z	femur_med_meniscii_r.meniscus_med_r.torque.X	femur_med_meniscii_r.meniscus_med_r.torque.Y	femur_med_meniscii_r.meniscus_med_r.torque.Z	femur_med_tibia_l.tibia_upper_l.force.X	femur_med_tibia_l.tibia_upper_l.force.Y	femur_med_tibia_l.tibia_upper_l.force.Z	femur_med_tibia_l.tibia_upper_l.torque.X	femur_med_tibia_l.tibia_upper_l.torque.Y	femur_med_tibia_l.tibia_upper_l.torque.Z	femur_med_tibia_l.femur_med_l.force.X	femur_med_tibia_l.femur_med_l.force.Y	femur_med_tibia_l.femur_med_l.force.Z	femur_med_tibia_l.femur_med_l.torque.X	femur_med_tibia_l.femur_med_l.torque.Y	femur_med_tibia_l.femur_med_l.torque.Z	femur_lat_tibia_l.tibia_upper_l.force.X	femur_lat_tibia_l.tibia_upper_l.force.Y	femur_lat_tibia_l.tibia_upper_l.force.Z	femur_lat_tibia_l.tibia_upper_l.torque.X	femur_lat_tibia_l.tibia_upper_l.torque.Y	femur_lat_tibia_l.tibia_upper_l.torque.Z	femur_lat_tibia_l.femur_lat_l.force.X	femur_lat_tibia_l.femur_lat_l.force.Y	femur_lat_tibia_l.femur_lat_l.force.Z	femur_lat_tibia_l.femur_lat_l.torque.X	femur_lat_tibia_l.femur_lat_l.torque.Y	femur_lat_tibia_l.femur_lat_l.torque.Z	femur_med_tibia_r.tibia_upper_r.force.X	femur_med_tibia_r.tibia_upper_r.force.Y	femur_med_tibia_r.tibia_upper_r.force.Z	femur_med_tibia_r.tibia_upper_r.torque.X	femur_med_tibia_r.tibia_upper_r.torque.Y	femur_med_tibia_r.tibia_upper_r.torque.Z	femur_med_tibia_r.femur_med_r.force.X	femur_med_tibia_r.femur_med_r.force.Y	femur_med_tibia_r.femur_med_r.force.Z	femur_med_tibia_r.femur_med_r.torque.X	femur_med_tibia_r.femur_med_r.torque.Y	femur_med_tibia_r.femur_med_r.torque.Z	femur_lat_tibia_r.tibia_upper_r.force.X	femur_lat_tibia_r.tibia_upper_r.force.Y	femur_lat_tibia_r.tibia_upper_r.force.Z	femur_lat_tibia_r.tibia_upper_r.torque.X	femur_lat_tibia_r.tibia_upper_r.torque.Y	femur_lat_tibia_r.tibia_upper_r.torque.Z	femur_lat_tibia_r.femur_lat_r.force.X	femur_lat_tibia_r.femur_lat_r.force.Y	femur_lat_tibia_r.femur_lat_r.force.Z	femur_lat_tibia_r.femur_lat_r.torque.X	femur_lat_tibia_r.femur_lat_r.torque.Y	femur_lat_tibia_r.femur_lat_r.torque.Z	aACL_R	pACL_R	aPCL_R	pPCL_R	aMCL_R	aLCL_R	aPCL_L	pPCL_L	aMCL_L	aLCL_L	ground_prescribedForce_0_fx	ground_prescribedForce_0_fy	ground_prescribedForce_0_fz
      0.19567027	     10.14914940	      7.44539176	      7.99678005	      3.45394424	      4.04263776	      4.29019292	     12.90655098	      5.57947436	     12.50789021	     10.22390956	      1.97474585	      7.40021797	      5.36627296	      3.82909820	      3.23984721	      5.41026985	      5.22709556	      2.91315682	      2.03326011	      4.80556665	      7.30848786	      5.48207601	     25.89232271	     16.64320764	      4.73817226	      3.38355137	      5.98984491	     16.27158190	      9.96682228	     10.60944825	     13.95634847	      4.96505374	      2.56934820	      9.36128337	     12.23576903	      2.03547582	      2.75097209	     17.76316954	      3.99009996	      8.88135930	      7.68232393	      9.98864934	      3.12087278	     10.14914940	      7.44539176	      7.99678005	      3.45394424	      4.04263776	      4.29019292	     12.42723119	      5.47591826	     10.78393665	      9.42958742	      1.97174989	      7.40021797	      5.36627296	      3.82909820	      3.23984721	      5.41026985	      4.97854550	      2.91315682	      2.03156886	      4.80556665	      7.30848786	      5.48207601	     25.89232271	     16.64320764	      4.73817226	      3.38355137	      5.98984491	     14.90292139	      8.72434823	     10.05982892	     10.80586386	     21.27134837	      9.88207093	     45.54864748	     48.29895562	      4.28486837	      4.34666185	     11.66488384	      6.19515364	     16.53550409	      2.57419928	      7.73600335	      2.42902427	     32.50285466	     32.50285466	     11.96836780	     11.96836780	     29.47591459	     29.47591459	      2.76307435	     50.99597937	     -9.56042239	      5.21997485	     -0.02578839	      1.48581788	     -2.76307435	    -50.99597937	      9.56042239	     -1.74637766	      0.02558040	     -0.48301696	     -3.31599387	     20.97615968	     -3.40468921	      0.94473225	     -0.02138609	     -1.00501789	      3.31599387	    -20.97615968	      3.40468921	      0.28075727	      0.00368718	     -0.29758878	     33.20454763	     55.51944655	     -0.49293876	     -1.23362954	      0.86520509	     13.89103332	    -33.20454763	    -55.51944655	      0.49293876	      1.73152462	     -1.04937569	     -1.09566817	     71.25693357	    102.69025574	      2.00525874	      1.35698280	     -1.51715050	     29.98379884	    -71.25693357	   -102.69025574	     -2.00525874	     -1.55969595	      1.12164642	     -2.52642766	      0.00000000	      0.00000000	      0.00000000	      0.00000000	      0.00000000	      0.00000000	      0.00000000	      0.00000000	      0.00000000	      0.00000000	      0.00000000	      0.00000000	      0.00000000	      0.00000000	      0.00000000	      0.00000000	      0.00000000	      0.00000000	      0.00000000	      0.00000000	      0.00000000	      0.00000000	      0.00000000	      0.00000000	      0.00000000	      0.00000000	      0.00000000	      0.00000000	      0.00000000	      0.00000000	      0.00000000	      0.00000000	      0.00000000	      0.00000000	      0.00000000	      0.00000000	      0.00000000	      0.00000000	      0.00000000	      0.00000000	      0.00000000	      0.00000000	      0.00000000	      0.00000000	      0.00000000	      0.00000000	      0.00000000	      0.00000000	      0.00000000	      0.00000000	      0.00000000	      0.00000000	     50.00599657	      0.00000000	      0.00000000	      0.00000000	      0.00000001	      0.00000000	    110.00000000	      0.00000000	      0.00000000
      0.19900389	     10.03743537	      7.36932075	      7.91407474	      3.42012596	      4.00575743	      4.24307832	     12.76327425	      5.51872194	     12.40348402	     10.07739391	      1.94442843	      7.32372421	      5.31421723	      3.79018366	      3.20614129	      5.34913491	      5.19163658	      2.88443601	      2.00762255	      4.75634379	      7.23343775	      5.42484515	     25.75288875	     16.48447236	      4.69076429	      3.36065271	      5.91232375	     16.11671177	      9.87765716	     10.51074196	     13.84201126	      4.89137569	      2.53581255	      9.22459506	     12.20725715	      2.09439670	      2.69698461	     17.59361906	      3.92343653	      8.61145512	      7.73562107	      9.72633872	      3.05885890	     10.03743537	      7.36932075	      7.91407474	      3.42012596	      4.00575743	      4.24307832	     12.27251220	      5.41612687	     10.65257425	      9.33514669	      1.95253385	      7.32372421	      5.31421723	      3.79018366	      3.20614129	      5.34913491	      4.94065147	      2.88443601	      2.01142163	      4.75634379	      7.23343775	      5.42484515	     25.75288875	     16.48447236	      4.69076429	      3.36065271	      5.91232375	     14.72303876	      8.63271378	      9.95232701	     10.69062287	     20.98704136	      9.74976988	     44.95750038	     48.04868885	      4.22057591	      4.28624961	     11.52762021	      6.11723404	     16.36916406	      2.54971726	      7.63332702	      2.39706285	     32.18389169	     32.18389169	     11.84107643	     11.84107643	     29.36102798	     29.36102798	      2.76307435	     50.99597937	     -9.56042239	      5.21997485	     -0.02578839	      1.48581788	     -2.76307435	    -50.99597937	      9.56042239	     -1.74637766	      0.02558040	     -0.48301696	     -3.31599387	     20.97615968	     -3.40468921	      0.94473225	     -0.02138609	     -1.00501789	      3.31599387	    -20.97615968	      3.40468921	      0.28075727	      0.00368718	     -0.29758878	     32.31464057	     53.61587264	     -0.05680282	     -1.36680028	      0.84182847	     13.52137418	    -32.31464057	    -53.61587264	      0.05680282	      1.68570552	     -1.02084003	     -1.06693622	     69.37137512	     99.44372657	      1.97469413	      1.29640610	     -1.47407332	     29.18771332	    -69.37137512	    -99.44372657	     -1.97469413	     -1.50618711	      1.08953384	     -2.45302262	      0.00000000	      0.00000000	      0.00000000	      0.00000000	      0.00000000	      0.00000000	      0.00000000	      0.00000000	      0.00000000	      0.00000000	      0.00000000	      0.00000000	      0.00000000	      0.00000000	      0.00000000	      0.00000000	      0.00000000	      0.00000000	      0.00000000	      0.00000000	      0.00000000	      0.00000000	      0.00000000	      0.00000000	      0.00000000	      0.00000000	      0.00000000	      0.00000000	      0.00000000	      0.00000000	      0.00000000	      0.00000000	      0.00000000	      0.00000000	      0.00000000	      0.00000000	      0.00000000	      0.00000000	      0.00000000	      0.00000000	      0.00000000	      0.00000000	      0.00000000	      0.00000000	      0.00000000	      0.00000000	      0.00000000	      0.00000000	      0.00000000	      0.00000000	      0.00000000	      0.00000000	     50.73369620	      0.00000000	      0.00000000	      0.00000000	      0.00000001	      0.00000000	    110.00000000	      0.00000000	      0.00000000
      0.20233750	      9.93058536	      7.29654202	      7.83495711	      3.38775969	      3.97047100	      4.19801410	     12.65004355	      5.47270978	     12.32445228	     10.04542879	      1.93824433	      7.25054875	      5.26439184	      3.75295441	      3.17390167	      5.29066107	      5.16420093	      2.85695069	      1.99604307	      4.70925848	      7.16164689	      5.37010408	     25.61954924	     16.33271153	      4.64540099	      3.33876489	      5.83797363	     15.99745487	      9.84816253	     10.48257968	     13.80783033	      4.85851390	      2.51973159	      9.13756694	     12.15599105	      2.17063549	      2.66159565	     17.40651622	      3.87845537	      8.38484914	      7.72710602	      9.44179725	      2.99325528	      9.93058536	      7.29654202	      7.83495711	      3.38775969	      3.97047100	      4.19801410	     12.12430607	      5.35893829	     10.52680546	      9.24478126	      1.93414202	      7.25054875	      5.26439184	      3.75295441	      3.17390167	      5.29066107	      4.90440835	      2.85695069	      1.99214178	      4.70925848	      7.16164689	      5.37010408	     25.61954924	     16.33271153	      4.64540099	      3.33876489	      5.83797363	     14.55084405	      8.54508422	      9.84953092	     10.58043829	     20.71389651	      9.62267141	     44.39057940	     47.80913834	      4.15909099	      4.22852662	     11.39627384	      6.04259072	     16.20970528	      2.52630792	      7.53460384	      2.36634294	     31.87862973	     31.87862973	     11.71932018	     11.71932018	     29.25117286	     29.25117286	      2.76307435	     50.99597937	     -9.56042239	      5.21997485	     -0.02578839	      1.48581788	     -2.76307435	    -50.99597937	      9.56042239	     -1.74637766	      0.02558040	     -0.48301696	     -3.31599387	     20.97615968	     -3.40468921	      0.94473225	     -0.02138609	     -1.00501789	      3.31599387	    -20.97615968	      3.40468921	      0.28075727	      0.00368718	     -0.29758878	     33.23974113	     54.66002378	     -0.04971109	     -1.39543759	      0.86443005	     13.91132746	    -33.23974113	    -54.66002378	      0.04971109	      1.71693043	     -1.04828268	     -1.09829356	     71.69432786	    102.08995582	      1.57843993	      1.51573204	     -1.52035601	     30.16383211	    -71.69432786	   -102.08995582	     -1.57843993	     -1.55910861	      1.12356199	     -2.52987670	      0.00000000	      0.00000000	      0.00000000	      0.00000000	      0.00000000	      0.00000000	      0.00000000	      0.00000000	      0.00000000	      0.00000000	      0.00000000	      0.00000000	      0.00000000	      0.00000000	      0.00000000	      0.00000000	      0.00000000	      0.00000000	      0.00000000	      0.00000000	      0.00000000	      0.00000000	      0.00000000	      0.00000000	      0.00000000	      0.00000000	      0.00000000	      0.00000000	      0.00000000	      0.00000000	      0.00000000	      0.00000000	      0.00000000	      0.00000000	      0.00000000	      0.00000000	      0.00000000	      0.00000000	      0.00000000	      0.00000000	      0.00000000	      0.00000000	      0.00000000	      0.00000000	      0.00000000	      0.00000000	      0.00000000	      0.00000000	      0.00000000	      0.00000000	      0.00000000	      0.00000000	     50.26598577	      0.00000000	      0.00000000	      0.00000000	      0.00000001	      0.00000000	    110.00000000	      0.00000000	      0.00000000
      0.20567112	      9.82838309	      7.22690991	      7.75926789	      3.35678189	      3.93670804	      4.15490911	     12.51818492	      5.41619582	     12.22076042	      9.90368935	      1.90938625	      7.18054428	      5.21669957	      3.71733573	      3.14306295	      5.23473032	      5.13237096	      2.83064665	      1.97183594	      4.66421555	      7.09297021	      5.31774180	     25.49202977	     16.18761058	      4.60199230	      3.31784189	      5.76666229	     15.85023428	      9.75527295	     10.38082119	     13.68649930	      4.79519637	      2.48835687	      9.02158673	     12.06538028	      2.25828567	      2.63743675	     17.23904169	      3.85656570	      8.20230788	      7.79773652	      9.14875046	      2.92927958	      9.82838309	      7.22690991	      7.75926789	      3.35678189	      3.93670804	      4.15490911	     11.98233656	      5.30423673	     10.40638942	      9.15831149	      1.91653838	      7.18054428	      5.21669957	      3.71733573	      3.14306295	      5.23473032	      4.86974266	      2.83064665	      1.97369121	      4.66421555	      7.09297021	      5.31774180	     25.49202977	     16.18761058	      4.60199230	      3.31784189	      5.76666229	     14.38600463	      8.46127957	      9.75122898	     10.47508165	     20.45145857	      9.50056268	     43.84687257	     47.57982886	      4.10029306	      4.17337308	     11.27058597	      5.97108379	     16.05683040	      2.50392299	      7.43968531	      2.33681879	     31.58646887	     31.58646887	     11.60285278	     11.60285278	     29.14612168	     29.14612168	      2.76307435	     50.99597937	     -9.56042239	      5.21997485	     -0.02578839	      1.48581788	     -2.76307435	    -50.99597937	      9.56042239	     -1.74637766	      0.02558040	     -0.48301696	     -3.31599387	     20.97615968	     -3.40468921	      0.94473225	     -0.02138609	     -1.00501789	      3.31599387	    -20.97615968	      3.40468921	      0.28075727	      0.00368718	     -0.29758878	     31.95782880	     52.66223941	      0.15793648	     -1.42932864	      0.83031627	     13.37656993	    -31.95782880	    -52.66223941	     -0.15793648	      1.65935139	     -1.00685566	     -1.05559043	     69.78487814	     99.13689678	      1.58668939	      1.44530488	     -1.47727814	     29.35995887	    -69.78487814	    -99.13689678	     -1.58668939	     -1.50901852	      1.09156026	     -2.45795600	      0.00000000	      0.00000000	      0.00000000	      0.00000000	      0.00000000	      0.00000000	      0.00000000	      0.00000000	      0.00000000	      0.00000000	      0.00000000	      0.00000000	      0.00000000	      0.00000000	      0.00000000	      0.00000000	      0.00000000	      0.00000000	      0.00000000	      0.00000000	      0.00000000	      0.00000000	      0.00000000	      0.00000000	      0.00000000	      0.00000000	      0.00000000	      0.00000000	      0.00000000	      0.00000000	      0.00000000	      0.00000000	      0.00000000	      0.00000000	      0.00000000	      0.00000000	      0.00000000	      0.00000000	      0.00000000	      0.00000000	      0.00000000	      0.00000000	      0.00000000	      0.00000000	      0.00000000	      0.00000000	      0.00000000	      0.00000000	      0.00000000	      0.00000000	      0.00000000	      0.00000000	     50.93051263	      0.00000000	      0.00000000	      0.00000000	      0.00000001	      0.00000000	    110.00000000	      0.00000000	      0.00000000
